<svg xmlns="http://www.w3.org/2000/svg" viewBox="0 0 640 160" width="640" height="160">
  <defs>
    <linearGradient id="amber" x1="0" y1="0" x2="1" y2="1">
      <stop offset="0" stop-color="#F59B3D"/>
      <stop offset="1" stop-color="#DE7514"/>
    </linearGradient>
  </defs>
  <!-- Челична плоча со засечен агол (ласерски рез) -->
  <path d="M8 8 H128 L152 32 V152 H32 L8 128 Z" fill="#1B2733"/>
  <path d="M128 8 L152 32 H128 Z" fill="#43546A"/>
  <!-- Ласерска линија по работ -->
  <path d="M8 8 H128 L152 32" fill="none" stroke="url(#amber)" stroke-width="4" stroke-linecap="round"/>
  <!-- S како виткана метална лента -->
  <path d="M112 44
           H72 A20 20 0 0 0 52 64
           A20 20 0 0 0 72 84 H92
           A12 12 0 0 1 104 96
           A12 12 0 0 1 92 108 H48"
        fill="none" stroke="url(#amber)" stroke-width="15" stroke-linecap="round"/>
  <!-- Точка како завртка -->
  <circle cx="130" cy="130" r="7" fill="url(#amber)"/>
  <!-- Wordmark -->
  <text x="184" y="86" font-family="Arial, Helvetica, sans-serif" font-size="52" font-weight="800" letter-spacing="4" fill="#1B2733">SERAFIMOSKI</text>
  <text x="188" y="130" font-family="Arial, Helvetica, sans-serif" font-size="30" font-weight="700" letter-spacing="14" fill="#DE7514">TECH</text>
  <text x="352" y="130" font-family="Arial, Helvetica, sans-serif" font-size="16" font-weight="400" letter-spacing="2" fill="#8A94A0">МЕТАЛНА ОБРАБОТКА</text>
</svg>
